<svg xmlns="http://www.w3.org/2000/svg" viewBox="0 0 60 60"><path d="M26.5 20a4.5 4.5 0 1 0-4.5-4.5 4.505 4.505 0 0 0 4.5 4.5zm0-7a2.5 2.5 0 1 1-2.5 2.5 2.5 2.5 0 0 1 2.5-2.5zM7 20h5.5a3.5 3.5 0 0 0 1.048-6.842 4 4 0 0 0-7.455.982A3 3 0 0 0 7 20zm0-4a1 1 0 0 0 1-1 2 2 0 0 1 3.883-.659 1 1 0 0 0 .817.67A1.5 1.5 0 0 1 12.5 18H7a1 1 0 0 1 0-2z"/><path d="M52.141 12.017a3.5 3.5 0 0 0-4.859 0L36 23.3V4a4 4 0 0 0-4-4H4a4 4 0 0 0-4 4v52a4 4 0 0 0 4 4h28a4 4 0 0 0 4-4v-9.3l22.986-22.981a3.415 3.415 0 0 0 0-4.856Zm1.3 14.422L34.3 45.58l-.007.007-.052.052-2.015-2.015 19.2-19.2Zm-31.035 22.55a.328.328 0 0 1-.311-.084.314.314 0 0 1-.087-.3l2.483-9.885 7.789 7.789ZM2 34.414l10.017-10.007a1.432 1.432 0 0 1 1.966 0l2.1 2.1-6.79 6.785a1 1 0 0 0 1.414 1.416l10.31-10.3a1.432 1.432 0 0 1 1.966 0l2.1 2.1-6.792 6.783a1 1 0 0 0 1.414 1.416l10.31-10.3a1.39 1.39 0 0 1 1.966 0l1.452 1.453-9.459 9.459A4.447 4.447 0 0 0 22.9 37H2Zm28.826 7.778-2.018-2.018L47.99 20.991l2.019 2.019Zm-3.45-3.415-2.013-2.013.012-.016L35.7 26.42l.007-.007 8.851-8.851 2.015 2.015ZM26 2v3a1 1 0 0 1-1 1H11a1 1 0 0 1-1-1V2ZM4 2h4v3a3 3 0 0 0 3 3h14a3 3 0 0 0 3-3V2h4a2 2 0 0 1 2 2v19.6l-.6-.6a3.393 3.393 0 0 0-4.794 0l-2.1 2.1-2.1-2.1a3.393 3.393 0 0 0-4.794 0l-2.1 2.1-2.1-2.1a3.393 3.393 0 0 0-4.794 0L2 31.588V4a2 2 0 0 1 2-2Zm28 56H4a2 2 0 0 1-2-2V39h20.359l-2.294 9.131a2.336 2.336 0 0 0-.024.869H5a1 1 0 0 0 0 2h17.32a2.318 2.318 0 0 0 .561-.068l10.631-2.67A4.709 4.709 0 0 0 34 48.1V56a2 2 0 0 1-2 2Zm25.577-35.7-2.721 2.721-8.877-8.877 2.721-2.721a1.416 1.416 0 0 1 2.023 0l6.854 6.854a1.416 1.416 0 0 1 0 2.019Z"/><path d="M5 7a1 1 0 0 0 1-1V5a1 1 0 0 0-2 0v1a1 1 0 0 0 1 1zm26 0a1 1 0 0 0 1-1V5a1 1 0 0 0-2 0v1a1 1 0 0 0 1 1zm-6 47H11a1 1 0 0 0 0 2h14a1 1 0 0 0 0-2zM5 43h1a1 1 0 0 0 0-2H5a1 1 0 0 0 0 2zm5 0h6a1 1 0 0 0 0-2h-6a1 1 0 0 0 0 2zm-5 4h12a1 1 0 0 0 0-2H5a1 1 0 0 0 0 2z"/></svg>